# xmcd
#
# Track frame offsets:
#	150
#	16293
#	30835
#	44195
#	58205
#	71605
#	85015
#	99043
#	111763
#	123830
#	138448
#	153148
#	164650
#	179238
#	193130
#	207393
#	220903
#	237725
#	251983
#	265383
#	278500
#	291533
#	304525
#	317643
#
# Disc length: 4436
#
# Revision: 6
# Processed by: cddbd v1.5.1PL0 Copyright (c) Steve Scherf et al.
# Submitted via: ExactAudioCopy v0.95a4
# Normalized: r5:DSETVAR1
#
DISCID=6d115218
DTITLE=Various Artist - The Blues [disc 2]
DYEAR=1993
DGENRE=
TTITLE0=Leroy Carr - Blues Before Sunrise
TTITLE1=Frank Stokes - Downtown Blues
TTITLE2=Mississippi John Hurt - Stack O'Lee Blues
TTITLE3=Peg Leg Howell - Rolling Mill Blues
TTITLE4=Lonnie Johnson - Mr. Johnson's Blues No.2
TTITLE5=Charley Patton - Pony Blues
TTITLE6=Roosevelt Sykes - Forty-Four Blues
TTITLE7=Memphis Minnie - Bumble Bee Blues
TTITLE8=Memphis Minnie - I'm So Glad
TTITLE9=Speckled Red - The Dirty Dozens (no. 1)
TTITLE10=Sleepy John Estes - Diving Duck Blues
TTITLE11=Memphis Jug Band - K. C. Moan
TTITLE12=Mississippi Sheiks - Sittin' On Top Of The World
TTITLE13=Walter Davis - M and O Blues
TTITLE14=Son House - Dry Spell Blues (pt. 1)
TTITLE15=Skip James - Devil Got My Woman
TTITLE16=Bumble Bee Slim - Chain Gang Bound
TTITLE17=Blind Willie McTell - Broke Down Engine Blues
TTITLE18=Big Bill Broonzy - Big Bill Blues
TTITLE19=Big Bill Broonzy - I'm Gonna Move To The Outskirts Of Town
TTITLE20=Kokomo Arnold - Old Original Kokomo Blues
TTITLE21=Cripple Clarence Lofton - Strut That Thing
TTITLE22=Carl Martin - Crow Jane
TTITLE23=Big Joe Williams - Baby Please Don't Go
EXTD=
EXTT0=
EXTT1=
EXTT2=
EXTT3=
EXTT4=
EXTT5=
EXTT6=
EXTT7=
EXTT8=
EXTT9=
EXTT10=
EXTT11=
EXTT12=
EXTT13=
EXTT14=
EXTT15=
EXTT16=
EXTT17=
EXTT18=
EXTT19=
EXTT20=
EXTT21=
EXTT22=
EXTT23=
PLAYORDER=
